<svg width="2708" height="776" viewBox="0 0 2708 776" fill="none" xmlns="http://www.w3.org/2000/svg">
<path d="M169.641 232.852C85.9136 128.812 86.4503 34.2672 97.1847 0C4.29152 56.3551 8.62665 104.04 36.4946 164.111C64.3625 224.182 109.57 291.684 276.159 488.618C409.429 646.164 344.9 745.415 295.976 775.348C416.118 722.708 448.321 630.434 406.828 540.638C365.336 450.841 274.301 362.902 169.641 232.852Z" fill="url(#paint0_linear_691_2063)"/>
<path d="M153.989 650C139.225 640.456 130.613 628.442 128.152 623.628L339.149 623C343.578 629.53 343.455 643.721 342.84 650H153.989Z" fill="#008080"/>
<path d="M104.617 573V546H303.094C310.84 552.382 316.004 566.659 317.617 573H104.617Z" fill="#008080"/>
<path d="M104.617 495V470H248.971C253.302 474.5 263.206 488.542 267.617 495H104.617Z" fill="#008080"/>
<path d="M284.615 360L265.164 336H377.164C371.46 341 359.058 351.5 348.88 360H284.615Z" fill="#008080"/>
<path d="M230.388 292C219.5 280.5 210.423 271 208.5 267H418.664C416.756 273.583 410.912 286 407.168 292H230.388Z" fill="#008080"/>
<path d="M167.035 215C162.512 208.5 154.5 197 150.5 191H422.664C422.664 201 422.664 206.5 421.675 215H167.035Z" fill="#008080"/>
<path d="M125.125 139C122.123 133.378 118.872 121.324 117.621 116H386.78C392.717 127.918 392.792 128.421 397.621 139H125.125Z" fill="#008080"/>
<path d="M211.617 425L193.392 402H104.617V425H211.617Z" fill="#008080"/>
<path d="M149.002 204C81.4017 96.4 89.5016 24 98.0017 0C60.8019 58.4 113.502 162.333 144.502 207C294.501 401.5 296.502 384.097 385.501 510.5C470.001 660 356.335 744.667 297.002 775.5C467.802 700.3 431.501 566 389 505.5C353 439.5 242.5 328 149.002 204Z" fill="url(#paint1_linear_691_2063)"/>
<path d="M18.5007 109C12.1007 57 68.1673 14.6667 97.0007 0C67.5004 18.8333 13.5 68.5 22.5 109C29.8333 142 50.5 183.167 57.5 194C98.1639 268.5 248.5 447 264 468C281 486 319 536 326 549.5C333 563 359 599 360 668C360.611 710.193 335.166 743.193 313.315 762.134C307.356 767.658 301.155 772.159 295 775.5C300.184 772.476 306.579 767.973 313.315 762.134C341.244 736.243 363.862 687.867 351.5 631C339.5 575.8 311.5 533.333 299 519L295.096 514.169C257.19 467.258 230.061 433.683 173 365.5C113 296 26.5007 174 18.5007 109Z" fill="url(#paint2_linear_691_2063)"/>
<path d="M328.163 34.0005C455.465 34.0005 558.663 137.199 558.663 264.5C558.663 369.81 488.041 458.624 391.573 486.167C391.554 486.136 391.533 486.104 391.514 486.073C391.405 486.104 391.298 486.137 391.189 486.167C371.082 453.611 348.136 422.994 322.701 394.657C327.858 395.23 334.914 394.809 338 394.5C337.981 394.493 337.962 394.485 337.943 394.477C377.28 391.524 445.396 370.189 487.664 299.743C547.664 199.743 492.306 115.734 448.664 81.2427C421.673 59.9106 368.906 25.6912 284.424 38.98C284.335 38.991 284.246 39.0021 284.157 39.0132L284.15 39.0239C284.242 39.0095 284.333 38.9943 284.424 38.98C330.305 33.3003 395.681 40.1277 448.664 90.7427C538.164 176.243 487.164 275.243 479.164 289.743C471.274 304.043 443.445 372.32 317.985 382.353C385.357 358.906 433.664 295.299 433.664 220.5C433.664 125.784 356.209 49.0005 260.664 49.0005C255.311 49.0005 250.015 49.2437 244.786 49.7153C245.683 49.354 246.584 49.0018 247.487 48.6548C246.543 48.9735 245.601 49.2979 244.664 49.6313V49.5894C245.828 49.1366 246.998 48.6955 248.172 48.2612L245.664 49.0601C251.279 46.9187 256.999 44.99 262.814 43.2847C263.234 43.184 263.653 43.0871 264.07 42.9888L264 43.0005C266.427 42.234 269.225 41.4806 272.061 40.7837C276.372 39.7131 280.732 38.765 285.136 37.9409C286.037 37.7678 286.835 37.6192 287.5 37.5005L287.431 37.5229C300.532 35.2088 314.014 34.0005 327.779 34.0005H328.163ZM244.664 49.7651V49.7271C244.705 49.7234 244.745 49.719 244.786 49.7153C244.745 49.7317 244.705 49.7487 244.664 49.7651Z" fill="url(#paint3_linear_691_2063)"/>
<path d="M287.935 38.6685C333.701 33.8676 397.033 41.7532 448.643 91.0562C538.424 176.825 487.264 276.137 479.238 290.683C471.323 305.029 443.856 372.435 318 382.5C385.585 358.98 433.595 296.258 433.596 221.223C433.596 126.208 355.897 49.1833 260.051 49.1831C254.681 49.1831 249.368 49.4268 244.122 49.8999C245.021 49.5374 245.926 49.1845 246.832 48.8365C246.072 49.0931 245.313 49.354 244.558 49.6197C244.719 49.5376 244.884 49.4524 245.056 49.3687C245.878 49.0547 246.701 48.7446 247.527 48.439L246.001 48.9243C246.262 48.8053 246.532 48.6836 246.812 48.562C251.309 46.8905 255.872 45.3554 260.496 43.9605C268.041 41.91 277.409 39.9696 287.935 38.6685Z" fill="url(#paint4_linear_691_2063)"/>
<path d="M244 49.9497V49.9116C244.041 49.908 244.081 49.9036 244.122 49.8999C244.081 49.9163 244.041 49.9333 244 49.9497Z" fill="url(#paint5_linear_691_2063)"/>
<path d="M0.443359 488.504C5.87616 569.916 60.8923 637.75 135.559 662.085C136.998 662.629 138.331 663.097 139.513 663.499L66.1279 663C45.1279 662.5 2.52794 650 0.12793 604C-0.139064 588.514 0.0348717 544.975 0.443359 488.504ZM4.12793 116C5.62793 156 31.1279 220.5 87.6279 285V556C86.5317 574.746 89.647 607.727 104.885 633.114L104.877 633.122C104.871 633.112 104.866 633.102 104.86 633.092C46.6106 602.326 5.69156 543.146 0.550781 474.002C1.40551 362.061 3.06424 207.477 4.12793 116Z" fill="url(#paint6_linear_691_2063)"/>
<path d="M705.664 545.75V230.75H756.289L900.964 461.15V230.75H947.764V545.75H897.139L752.464 315.35V545.75H705.664ZM1097.78 551.6C1077.08 551.6 1058.18 546.275 1041.08 535.625C1024.13 524.975 1010.55 510.725 1000.35 492.875C990.304 474.875 985.279 455 985.279 433.25C985.279 416.75 988.204 401.375 994.054 387.125C999.904 372.725 1007.93 360.125 1018.13 349.325C1028.48 338.375 1040.48 329.825 1054.13 323.675C1067.78 317.525 1082.33 314.45 1097.78 314.45C1115.03 314.45 1130.85 318.05 1145.25 325.25C1159.65 332.3 1171.95 342.125 1182.15 354.725C1192.35 367.175 1199.85 381.575 1204.65 397.925C1209.45 414.125 1210.88 431.375 1208.93 449.675H1035.45C1037.4 460.025 1041.15 469.4 1046.7 477.8C1052.4 486.05 1059.6 492.575 1068.3 497.375C1077.15 502.175 1086.98 504.65 1097.78 504.8C1109.18 504.8 1119.53 501.95 1128.83 496.25C1138.28 490.55 1146 482.675 1152 472.625L1199.48 483.65C1190.48 503.6 1176.9 519.95 1158.75 532.7C1140.6 545.3 1120.28 551.6 1097.78 551.6ZM1033.88 413.9H1161.68C1160.18 403.1 1156.35 393.35 1150.2 384.65C1144.2 375.8 1136.63 368.825 1127.48 363.725C1118.48 358.475 1108.58 355.85 1097.78 355.85C1087.13 355.85 1077.23 358.4 1068.08 363.5C1059.08 368.6 1051.58 375.575 1045.58 384.425C1039.73 393.125 1035.83 402.95 1033.88 413.9ZM1344.75 551.6C1324.05 551.6 1305.15 546.275 1288.05 535.625C1271.1 524.975 1257.53 510.725 1247.33 492.875C1237.28 474.875 1232.25 455 1232.25 433.25C1232.25 416.75 1235.18 401.375 1241.03 387.125C1246.88 372.725 1254.9 360.125 1265.1 349.325C1275.45 338.375 1287.45 329.825 1301.1 323.675C1314.75 317.525 1329.3 314.45 1344.75 314.45C1362 314.45 1377.83 318.05 1392.23 325.25C1406.63 332.3 1418.93 342.125 1429.13 354.725C1439.33 367.175 1446.83 381.575 1451.63 397.925C1456.43 414.125 1457.85 431.375 1455.9 449.675H1282.43C1284.38 460.025 1288.13 469.4 1293.68 477.8C1299.38 486.05 1306.58 492.575 1315.28 497.375C1324.13 502.175 1333.95 504.65 1344.75 504.8C1356.15 504.8 1366.5 501.95 1375.8 496.25C1385.25 490.55 1392.98 482.675 1398.98 472.625L1446.45 483.65C1437.45 503.6 1423.88 519.95 1405.73 532.7C1387.58 545.3 1367.25 551.6 1344.75 551.6ZM1280.85 413.9H1408.65C1407.15 403.1 1403.33 393.35 1397.18 384.65C1391.18 375.8 1383.6 368.825 1374.45 363.725C1365.45 358.475 1355.55 355.85 1344.75 355.85C1334.1 355.85 1324.2 358.4 1315.05 363.5C1306.05 368.6 1298.55 375.575 1292.55 384.425C1286.7 393.125 1282.8 402.95 1280.85 413.9ZM1610.65 367.55H1563.4L1563.17 545.75H1516.37L1516.6 367.55H1480.82V320.75H1516.6L1516.37 250.1H1563.17L1563.4 320.75H1610.65V367.55ZM1759.03 545.75V230.75H1867.48C1884.43 230.75 1899.73 234.95 1913.38 243.35C1927.18 251.75 1938.13 263.075 1946.23 277.325C1954.48 291.575 1958.61 307.325 1958.61 324.575C1958.61 342.125 1954.41 358.025 1946.01 372.275C1937.76 386.375 1926.73 397.625 1912.93 406.025C1899.13 414.425 1883.98 418.625 1867.48 418.625H1805.83V545.75H1759.03ZM1805.83 371.825H1862.76C1871.76 371.825 1879.93 369.575 1887.28 365.075C1894.78 360.575 1900.71 354.575 1905.06 347.075C1909.56 339.575 1911.81 331.1 1911.81 321.65C1911.81 312.2 1909.56 303.725 1905.06 296.225C1900.71 288.575 1894.78 282.575 1887.28 278.225C1879.93 273.725 1871.76 271.475 1862.76 271.475H1805.83V371.825ZM2083.47 551.6C2062.77 551.6 2043.87 546.275 2026.77 535.625C2009.82 524.975 1996.25 510.725 1986.05 492.875C1976 474.875 1970.97 455 1970.97 433.25C1970.97 416.75 1973.9 401.375 1979.75 387.125C1985.6 372.725 1993.62 360.125 2003.82 349.325C2014.17 338.375 2026.17 329.825 2039.82 323.675C2053.47 317.525 2068.02 314.45 2083.47 314.45C2100.72 314.45 2116.55 318.05 2130.95 325.25C2145.35 332.3 2157.65 342.125 2167.85 354.725C2178.05 367.175 2185.55 381.575 2190.35 397.925C2195.15 414.125 2196.57 431.375 2194.62 449.675H2021.15C2023.1 460.025 2026.85 469.4 2032.4 477.8C2038.1 486.05 2045.3 492.575 2054 497.375C2062.85 502.175 2072.67 504.65 2083.47 504.8C2094.87 504.8 2105.22 501.95 2114.52 496.25C2123.97 490.55 2131.7 482.675 2137.7 472.625L2185.17 483.65C2176.17 503.6 2162.6 519.95 2144.45 532.7C2126.3 545.3 2105.97 551.6 2083.47 551.6ZM2019.57 413.9H2147.37C2145.87 403.1 2142.05 393.35 2135.9 384.65C2129.9 375.8 2122.32 368.825 2113.17 363.725C2104.17 358.475 2094.27 355.85 2083.47 355.85C2072.82 355.85 2062.92 358.4 2053.77 363.5C2044.77 368.6 2037.27 375.575 2031.27 384.425C2025.42 393.125 2021.52 402.95 2019.57 413.9ZM2406.5 320.75H2453.3V545.75H2406.27L2404.47 513.125C2397.87 524.675 2388.95 533.975 2377.7 541.025C2366.45 548.075 2353.17 551.6 2337.87 551.6C2321.37 551.6 2305.85 548.525 2291.3 542.375C2276.75 536.075 2263.92 527.375 2252.82 516.275C2241.87 505.175 2233.32 492.425 2227.17 478.025C2221.02 463.475 2217.95 447.875 2217.95 431.225C2217.95 415.175 2220.95 400.1 2226.95 386C2232.95 371.75 2241.27 359.3 2251.92 348.65C2262.57 338 2274.87 329.675 2288.82 323.675C2302.92 317.525 2318 314.45 2334.05 314.45C2350.4 314.45 2364.8 318.2 2377.25 325.7C2389.85 333.05 2400.27 342.5 2408.52 354.05L2406.5 320.75ZM2336.75 506.375C2349.95 506.375 2361.5 503.15 2371.4 496.7C2381.3 490.1 2388.95 481.25 2394.35 470.15C2399.9 459.05 2402.67 446.75 2402.67 433.25C2402.67 419.6 2399.9 407.225 2394.35 396.125C2388.8 385.025 2381.07 376.25 2371.17 369.8C2361.42 363.2 2349.95 359.9 2336.75 359.9C2323.7 359.9 2311.77 363.2 2300.97 369.8C2290.17 376.4 2281.62 385.25 2275.32 396.35C2269.02 407.45 2265.87 419.75 2265.87 433.25C2265.87 446.9 2269.1 459.275 2275.55 470.375C2282.15 481.325 2290.77 490.1 2301.42 496.7C2312.22 503.15 2324 506.375 2336.75 506.375ZM2692.33 545.75H2638.33L2582.98 450.35L2546.75 493.55V545.75H2499.95V208.25H2546.75V420.875L2630.45 320.75H2691.65L2614.93 412.325L2692.33 545.75Z" fill="#008080"/>
<defs>
<linearGradient id="paint0_linear_691_2063" x1="90.5" y1="-5.146e-07" x2="311" y2="775" gradientUnits="userSpaceOnUse">
<stop stop-color="#008080"/>
<stop offset="1" stop-color="#33A6A6"/>
</linearGradient>
<linearGradient id="paint1_linear_691_2063" x1="255" y1="-13.5" x2="254.811" y2="775.5" gradientUnits="userSpaceOnUse">
<stop stop-color="#008080"/>
<stop offset="1" stop-color="#E0F5F5"/>
</linearGradient>
<linearGradient id="paint2_linear_691_2063" x1="189.003" y1="0" x2="189.003" y2="775.5" gradientUnits="userSpaceOnUse">
<stop stop-color="#33A6A6"/>
<stop offset="1" stop-color="#E0F5F5"/>
</linearGradient>
<linearGradient id="paint3_linear_691_2063" x1="568.5" y1="-90.5" x2="401.664" y2="486.167" gradientUnits="userSpaceOnUse">
<stop stop-color="#E0F5F5"/>
<stop offset="1" stop-color="#33A6A6"/>
</linearGradient>
<linearGradient id="paint4_linear_691_2063" x1="372.5" y1="37.4565" x2="372.5" y2="383.586" gradientUnits="userSpaceOnUse">
<stop stop-color="#33A6A6"/>
<stop offset="1" stop-color="#008080"/>
</linearGradient>
<linearGradient id="paint5_linear_691_2063" x1="372.5" y1="37.4565" x2="372.5" y2="383.586" gradientUnits="userSpaceOnUse">
<stop stop-color="#33A6A6"/>
<stop offset="1" stop-color="#008080"/>
</linearGradient>
<linearGradient id="paint6_linear_691_2063" x1="69.8137" y1="116" x2="69.8137" y2="663.5" gradientUnits="userSpaceOnUse">
<stop stop-color="#2EA2A2"/>
<stop offset="1" stop-color="#008080"/>
</linearGradient>
</defs>
</svg>
